<?xml version="1.0" encoding="UTF-8"?>
<!DOCTYPE svg PUBLIC "-//W3C//DTD SVG 1.1//EN"
  "http://www.w3.org/Graphics/SVG/1.1/DTD/svg11.dtd">
<!-- Created with Inkpad (http://www.taptrix.com/) --><svg xmlnsInkpad="http://taptrix.com/inkpad/svg_extensions" height="63pt" xmlns:xlink="http://www.w3.org/1999/xlink" xmlns="http://www.w3.org/2000/svg" width="65pt" version="1.1" viewBox="0,0,50,48">
<defs/>
<g id="Untitled" inkpadLayerName="Untitled">
<g opacity="1">
<path d="M18.7749+1.06015L18.3936+1.44361L18.7749+1.80451C19.0175+2.03007+19.2833+2.16541+19.4681+2.16541C19.653+2.16541+19.9187+2.03007+20.1614+1.80451L20.5426+1.44361L20.1614+1.06015C19.9187+0.823307+19.653+0.67669+19.4681+0.67669C19.2833+0.67669+19.0175+0.823307+18.7749+1.06015ZM19.2486+1.40977C19.2486+1.83834+19.1446+1.91729+18.9598+1.61278C18.8789+1.46616+18.902+1.35338+19.0291+1.21804C19.1331+1.10526+19.2255+1.01504+19.2371+1.01504C19.2371+1.01504+19.2486+1.19549+19.2486+1.40977Z" opacity="1" fill="#000000"/>
<path d="M30.0861+1.18421C29.959+1.27443+29.647+1.35338+29.3813+1.35338C29.0231+1.35338+28.8614+1.40977+28.7689+1.56767C28.6187+1.8609+28.6187+1.95113+28.8036+1.88346C28.8729+1.8609+29.0347+1.88346+29.1502+1.93985C29.3235+2.03007+29.3466+2.2218+29.3466+3.49624C29.3466+4.7594+29.3235+4.9624+29.1502+5.06391C28.9538+5.16541+28.9538+5.17669+29.1502+5.39098C29.312+5.57143+29.3466+5.77443+29.3235+6.38346C29.2888+7.09398+29.2657+7.16165+29.0347+7.19549C28.7112+7.2406+28.6649+7.66917+28.9769+7.68045C29.8203+7.72556+31.1837+7.69173+31.2992+7.62406C31.5303+7.47744+31.4379+7.21804+31.149+7.21804C30.8139+7.21804+30.7331+7.03759+30.7331+6.24812C30.7331+5.78571+30.7908+5.58271+30.9641+5.41353C31.1952+5.18797+31.1952+5.18797+30.9526+4.95113C30.7331+4.73684+30.71+4.6015+30.7331+3.34962C30.7446+2.59398+30.7562+1.81579+30.7446+1.61278C30.7331+1.16165+30.4096+0.947367+30.0861+1.18421ZM30.0283+4.51128C30.0283+6.20301+29.9012+6.85714+29.7626+5.92105C29.7163+5.60526+29.6817+5.27819+29.6932+5.18797C29.7048+5.09774+29.7394+4.45489+29.7741+3.77819C29.855+2.07519+30.0283+2.56015+30.0283+4.51128Z" opacity="1" fill="#000000"/>
<path d="M12.7669+1.37594C12.6745+1.43233+12.5936+1.55639+12.5936+1.64662C12.5936+1.73684+12.6398+1.78195+12.7092+1.74812C12.7669+1.71428+12.9287+1.73684+13.0558+1.80451C13.2637+1.91729+13.2869+2.04135+13.2869+2.95489C13.2869+3.75564+13.2406+4.02631+13.0904+4.19549C12.9171+4.38722+12.9171+4.40977+13.102+4.54511C13.2637+4.65789+13.2869+4.8609+13.2637+5.92105L13.2291+7.16165L12.9171+7.19549C12.6052+7.22932+12.4781+7.47744+12.7092+7.61278C12.9633+7.7594+15.7709+7.74812+16.3255+7.59022C16.857+7.43233+17.1689+7.46616+17.0418+7.66917C16.9147+7.8609+17.2382+7.90601+17.504+7.73684C17.7697+7.56767+17.7813+7.51128+17.7351+6.59774C17.6888+5.54887+17.5502+5.18797+17.2151+5.18797C17.0303+5.18797+16.9841+5.26692+16.9841+5.62782C16.9841+6.56391+16.5566+7.09398+15.794+7.12782C15.5861+7.1391+15.2972+7.08271+15.1586+7.00376C14.9275+6.8797+14.9044+6.78947+14.9044+5.80827C14.9044+4.88346+14.939+4.70301+15.1355+4.54511C15.355+4.35338+15.355+4.35338+15.1355+4.20677C14.9275+4.07143+14.9044+3.91353+14.9044+2.97744C14.9044+1.97368+14.9159+1.90601+15.1701+1.81579C15.3088+1.7594+15.4936+1.74812+15.5745+1.77068C15.7478+1.83834+15.7594+1.51128+15.5745+1.39849C15.3781+1.28571+12.9749+1.26316+12.7669+1.37594ZM13.9801+4.48872C13.9801+6.50752+13.7952+7.19549+13.7143+5.51504C13.6335+4.18421+13.6335+4.37594+13.7028+3.40601C13.8183+1.98496+13.9801+2.65037+13.9801+4.48872Z" opacity="1" fill="#000000"/>
<path d="M26.5044+1.5C26.3657+1.66917+26.1693+1.80451+26.0653+1.80451C25.8574+1.80451+25.5339+2.35714+25.5339+2.70677C25.5339+2.85338+25.453+2.93233+25.3143+2.93233C25.0486+2.93233+24.7251+3.21428+24.7251+3.43985C24.7251+3.53007+24.8637+3.60902+25.0486+3.63158C25.3375+3.66541+25.3606+3.71052+25.3952+4.21804C25.4183+4.61278+25.3721+4.81579+25.2219+4.98496C25.0255+5.19925+25.0255+5.21052+25.2219+5.31203C25.3721+5.39098+25.4183+5.57143+25.4183+5.98872C25.4183+6.82331+25.6956+7.31955+26.3195+7.57895C27.1514+7.93985+28.041+7.72556+28.4916+7.04887C28.7574+6.65413+28.6303+6.20301+28.249+6.20301C28.0179+6.20301+27.9602+6.2594+27.9602+6.48496C27.9602+6.78947+27.602+7.21804+27.3363+7.21804C27.0012+7.21804+26.8741+6.85714+26.8279+5.7406C26.7932+5.13158+26.8163+4.39849+26.851+4.11654L26.9319+3.60902L27.4402+3.60902C27.9486+3.60902+28.3645+3.37218+28.2721+3.11278C28.249+3.04511+27.9139+2.97744+27.5211+2.95489L26.8163+2.92105L26.7817+2.05263L26.747+1.18421L26.5044+1.5ZM26.0884+5.0188C26.0884+5.51504+26.0538+6.04511+26.0076+6.20301C25.9382+6.43985+25.9036+6.38346+25.8458+5.89849C25.7996+5.57143+25.7072+5.27819+25.6378+5.23308C25.5454+5.18797+25.557+5.13158+25.661+5.06391C25.7765+4.99624+25.8343+4.64662+25.8689+3.9812C25.9267+3.04511+25.9267+3.02255+26.0076+3.55263C26.0538+3.85714+26.0884+4.52255+26.0884+5.0188Z" opacity="1" fill="#000000"/>
<path d="M22.6801+1.57895C22.6454+1.70301+22.5299+1.80451+22.4143+1.80451C22.1371+1.80451+21.8482+2.14286+21.7673+2.57143C21.7211+2.77443+21.6171+2.93233+21.5363+2.93233C21.3514+2.93233+20.9124+3.32707+20.9124+3.48496C20.9124+3.54135+21.051+3.60902+21.2359+3.63158C21.5247+3.66541+21.5478+3.71052+21.5825+4.21804C21.6056+4.61278+21.5594+4.81579+21.4092+4.98496C21.2127+5.19925+21.2127+5.21052+21.4092+5.31203C21.5363+5.39098+21.6056+5.56015+21.6056+5.8421C21.6056+6.5188+21.8135+7.07143+22.1833+7.37594C23.1307+8.15413+24.9446+7.59022+24.8175+6.56391C24.7944+6.32707+24.7251+6.2594+24.494+6.2594C24.2745+6.2594+24.2052+6.32707+24.1359+6.64286C24.0203+7.20677+23.639+7.38722+23.2924+7.03759C23.1422+6.89098+23.1076+6.56391+23.1076+5.23308L23.1076+3.60902L23.6044+3.60902C24.1821+3.60902+24.5633+3.39474+24.4594+3.11278C24.4016+2.97744+24.2283+2.93233+23.743+2.93233L23.1076+2.93233L23.1076+2.14286C23.1076+1.5+23.0729+1.35338+22.9227+1.35338C22.8187+1.35338+22.7147+1.45489+22.6801+1.57895ZM22.2988+4.79323C22.2988+5.59398+22.241+6.33834+22.1833+6.42857C22.1024+6.55263+22.0677+6.45113+22.0677+6.05639C22.0677+5.75188+22.01+5.41353+21.9522+5.30075C21.8713+5.15413+21.8713+5.06391+21.9522+5.0188C22.01+4.98496+22.0677+4.51128+22.0677+3.96992C22.0677+3.29323+22.1024+3.04511+22.1833+3.15789C22.241+3.24812+22.2988+3.9812+22.2988+4.79323Z" opacity="1" fill="#000000"/>
<path d="M34.1414+2.76316C34.0837+2.78571+33.8873+2.83083+33.7024+2.86466C33.1478+2.98872+32.4892+3.67669+32.2813+4.35338C32.1888+4.69173+32.0155+5.00752+31.9116+5.06391C31.7382+5.16541+31.7382+5.18797+31.9578+5.34586C32.108+5.44737+32.2351+5.69549+32.2813+5.95489C32.5355+7.56767+34.6382+8.32331+35.9323+7.26316C36.3251+6.93609+36.4175+6.39474+36.094+6.27068C35.9092+6.20301+35.5279+6.40601+35.6319+6.5188C35.7705+6.64286+35.447+6.9812+35.0773+7.10526C34.4418+7.30827+33.8988+7.02631+33.7371+6.41729C33.6677+6.15789+33.6446+5.90977+33.7024+5.85338C33.7486+5.80827+34.3841+5.67293+35.1004+5.54887C35.8167+5.43609+36.4291+5.30075+36.4637+5.26692C36.5908+5.15413+36.2673+3.95865+36.0131+3.59774C35.8745+3.39474+35.5972+3.13534+35.4124+3.03383C35.0657+2.8421+34.361+2.69549+34.1414+2.76316ZM34.6382+3.45113C34.8578+3.59774+34.8924+3.7218+34.8924+4.33083C34.8924+5.04135+34.8924+5.05263+34.5343+5.1203C34.3379+5.15413+34.0375+5.18797+33.8757+5.18797C33.5869+5.18797+33.5869+5.18797+33.6562+4.42105C33.7139+3.84586+33.7833+3.6203+33.9797+3.4624C34.2801+3.22556+34.3147+3.22556+34.6382+3.45113ZM32.9167+4.6015C32.8243+5.1203+32.8243+5.44737+32.9167+5.80827C33.1709+6.80075+32.9514+6.77819+32.651+5.77443C32.5008+5.24436+32.5008+5.13158+32.6626+4.59022C32.9745+3.55263+33.1016+3.56391+32.9167+4.6015ZM35.4701+4.45489C35.4701+4.73684+35.4239+4.9624+35.3546+4.9624C35.2968+4.9624+35.239+4.73684+35.239+4.45489C35.239+4.17293+35.2968+3.94737+35.3546+3.94737C35.4239+3.94737+35.4701+4.17293+35.4701+4.45489Z" opacity="1" fill="#000000"/>
<path d="M19.4681+2.93233C19.4219+3.01128+19.2486+3.03383+19.0522+2.98872C18.6247+2.89849+18.1394+3.18045+18.1394+3.50752C18.1394+3.67669+18.1972+3.7218+18.3127+3.67669C18.7865+3.49624+19.0291+4.54511+18.6016+4.9624C18.3705+5.18797+18.3705+5.18797+18.6016+5.41353C18.8442+5.65037+18.8789+5.86466+18.7633+6.69925C18.694+7.15037+18.6478+7.21804+18.4167+7.21804C18.0932+7.21804+18.047+7.5+18.3474+7.64662C18.4514+7.69173+19.0291+7.73684+19.6183+7.72556C20.4155+7.71428+20.7275+7.66917+20.7968+7.54511C20.9239+7.36466+20.8315+7.25188+20.508+7.19549C20.3116+7.16165+20.2769+7.06015+20.2422+6.37218C20.2076+5.67293+20.2422+5.56015+20.4618+5.39098L20.7044+5.18797L20.4618+4.98496C20.2653+4.82707+20.2191+4.64662+20.196+3.83459C20.1614+2.88722+20.1614+2.87594+19.8494+2.8421C19.6877+2.81955+19.5143+2.86466+19.4681+2.93233ZM19.4104+5.18797C19.4104+5.77443+19.3526+6.33834+19.2948+6.42857C19.2139+6.55263+19.1793+6.43985+19.1793+6.02256C19.1793+5.71804+19.1215+5.40225+19.0406+5.32331C18.9367+5.2218+18.9367+5.15413+19.0406+5.05263C19.1215+4.97368+19.1793+4.65789+19.1793+4.3421C19.1793+3.93609+19.2139+3.82331+19.2948+3.94737C19.3526+4.03759+19.4104+4.6015+19.4104+5.18797Z" opacity="1" fill="#000000"/>
<path d="M16.7068+8.44737C16.6721+8.50376+16.3024+8.51504+15.898+8.49248C15.1701+8.43609+15.1355+8.44737+14.7773+8.78571C14.4653+9.1015+14.4191+9.20301+14.4769+9.55263C14.5231+9.77819+14.6849+10.094+14.8466+10.2632C15.0084+10.4211+15.1355+10.6241+15.1355+10.703C15.1355+10.782+15.2048+10.8271+15.2972+10.7932C15.3896+10.7594+15.6438+10.8383+15.8518+10.9737C16.1637+11.1767+16.2331+11.3008+16.2331+11.6165C16.2331+11.9436+16.1753+12.0226+15.9096+12.1128C15.4474+12.2707+14.9737+11.9098+14.9275+11.3571C14.8582+10.5451+14.396+11.109+14.4422+11.9549C14.4422+12.0451+14.4538+12.203+14.4538+12.2932C14.4653+12.5301+16.0829+12.5752+16.5335+12.3496C16.961+12.1241+17.2151+11.7519+17.2151+11.3233C17.2151+10.985+16.8801+10.4211+16.5566+10.2293C16.4757+10.1842+16.4064+10.0601+16.4064+9.9812C16.4064+9.8797+16.2908+9.81203+16.1406+9.81203C15.7478+9.81203+15.2741+9.29323+15.4359+9.04511C15.5861+8.80827+16.1291+8.72932+16.3602+8.92105C16.4526+8.98872+16.5219+9.20301+16.5219+9.38346C16.5219+9.80075+16.8685+9.78947+16.9841+9.3609C17.1343+8.80827+16.9147+8.10902+16.7068+8.44737ZM15.6785+10.3308C16.441+10.8722+16.753+11.1992+16.753+11.4361C16.753+11.6278+16.7183+11.6165+16.5335+11.3233C16.4064+11.1203+16.1753+10.8722+16.002+10.7594C15.2857+10.2744+14.7888+9.77819+14.7888+9.54135C14.7888+9.33834+14.8235+9.34962+15.0084+9.65413C15.1355+9.85714+15.4359+10.1504+15.6785+10.3308Z" opacity="1" fill="#000000"/>
<path d="M34.257+9.34962C34.2223+9.41729+33.945+9.43985+33.6446+9.40601C32.8821+9.32707+32.3506+9.64286+32.3506+10.1842C32.3506+10.4211+32.443+10.6466+32.5817+10.7707C32.7088+10.8835+32.8128+11.0414+32.8128+11.1316C32.8128+11.2105+32.9283+11.2782+33.0785+11.2782C33.7602+11.2895+34.1299+12.0902+33.4829+12.1579C32.9976+12.2143+32.6972+12+32.6972+11.6165C32.6972+11.2556+32.5701+11.188+32.3853+11.4135C32.2582+11.5714+32.2235+11.8872+32.3044+12.2594C32.3506+12.485+32.4084+12.4962+33.2171+12.4737C33.945+12.4511+34.1299+12.3947+34.3725+12.1804C34.9502+11.6504+34.5689+10.8045+33.5984+10.3985C33.2056+10.2406+33.1247+9.69925+33.4944+9.69925C33.8641+9.69925+34.0837+9.82331+34.0837+10.0376C34.0837+10.1617+34.1299+10.2744+34.1877+10.3195C34.3379+10.3985+34.5458+10.015+34.5458+9.65413C34.5458+9.34962+34.3725+9.16917+34.257+9.34962ZM33.4482+10.8722C33.7833+11.0865+34.1299+11.3684+34.1992+11.4925C34.3841+11.8308+34.2339+11.7857+33.8873+11.391C33.7371+11.1992+33.506+11.0526+33.3904+11.0526C33.1709+11.0526+32.5817+10.4549+32.5817+10.2293C32.5817+10.1504+32.6394+10.1842+32.7088+10.297C32.7665+10.3985+33.1016+10.6692+33.4482+10.8722Z" opacity="1" fill="#000000"/>
<path d="M18.1394+9.43985C17.6542+9.53007+17.3307+9.92481+17.7351+9.92481C17.943+9.92481+17.9777+10.6015+17.7813+10.7932C17.6888+10.8835+17.6888+10.9398+17.7813+10.985C17.8622+11.0414+17.9084+11.515+17.9084+12.2481C17.9084+13.2406+17.8853+13.4211+17.7235+13.4211C17.6195+13.4211+17.5618+13.4887+17.5849+13.5564C17.6657+13.7707+19.1446+13.7932+19.2139+13.5902C19.2486+13.5113+19.1793+13.4211+19.0522+13.3872C18.8789+13.3421+18.8327+13.2293+18.8327+12.812C18.8327+12.3271+18.8558+12.2932+19.0522+12.406C19.6645+12.7218+20.3693+12.3383+20.5773+11.5827C20.6466+11.3233+20.7506+11.0526+20.8084+10.9737C20.8777+10.8947+20.8777+10.8271+20.8084+10.782C20.7506+10.7481+20.6697+10.5113+20.6235+10.2632C20.4964+9.53007+19.7916+9.15789+19.1562+9.48496C18.9944+9.57519+18.8904+9.57519+18.798+9.48496C18.6709+9.3609+18.6363+9.34962+18.1394+9.43985ZM19.6992+10.0714C19.7339+10.2068+19.757+10.6692+19.7339+11.0977C19.6992+11.9549+19.4912+12.2481+19.0984+12C18.9367+11.8985+18.8789+11.6842+18.8558+11.0752C18.8327+10.6241+18.8789+10.1617+18.9482+10.0376C19.1215+9.7218+19.6183+9.73308+19.6992+10.0714ZM20.0689+11.2444C20.0458+11.4812+20.0227+11.312+20.0227+10.8835C20.0227+10.4436+20.0458+10.2632+20.0689+10.4549C20.092+10.6579+20.092+11.0188+20.0689+11.2444ZM18.3474+11.3008L18.3359+12.3496L18.255+11.6165C18.1857+10.9511+18.2203+10.2632+18.3243+10.2632C18.3474+10.2632+18.359+10.7368+18.3474+11.3008Z" opacity="1" fill="#000000"/>
<path d="M22.1139+9.57519C21.7442+9.78947+21.2012+10.8271+21.3629+11.0075C21.4092+11.0639+21.5131+11.3233+21.594+11.594C21.8135+12.3609+22.657+12.7105+23.4657+12.3722C23.8701+12.2143+24.2629+11.6504+24.2629+11.2444C24.2629+11.1429+24.3092+11.0301+24.3785+10.9962C24.4478+10.9511+24.4478+10.8496+24.39+10.7368C24.3323+10.6353+24.2167+10.3759+24.1359+10.1617C23.8586+9.43985+22.8534+9.13534+22.1139+9.57519ZM23.1538+9.8797C23.2924+10.0038+23.3386+10.2744+23.3386+10.8835C23.3386+11.9211+23.2809+12.0677+22.8765+12.0677C22.4721+12.0677+22.4143+11.9211+22.4143+10.8835C22.4143+10.0827+22.5645+9.69925+22.8765+9.69925C22.9343+9.69925+23.0614+9.77819+23.1538+9.8797ZM23.6506+11.2444C23.6275+11.4812+23.6044+11.2895+23.6044+10.8271C23.6044+10.3647+23.6275+10.1729+23.6506+10.3985C23.6737+10.6353+23.6737+11.0188+23.6506+11.2444ZM21.906+10.8835C21.906+11.4361+21.8944+11.4699+21.7789+11.188C21.6865+10.9737+21.6865+10.7932+21.7673+10.5789C21.8367+10.3985+21.8944+10.2632+21.906+10.2632C21.9175+10.2632+21.9175+10.5451+21.906+10.8835Z" opacity="1" fill="#000000"/>
<path d="M25.996+9.43985C25.6956+9.55263+25.1873+10.0714+25.1873+10.2632C25.1873+10.3534+25.1064+10.5451+25.0139+10.6804C24.8637+10.8835+24.8637+10.9286+25.0139+11.0526C25.1064+11.1316+25.1873+11.312+25.1873+11.4474C25.1873+12.0677+26.0653+12.5977+26.851+12.4511C27.3247+12.3722+27.8446+11.8421+27.8446+11.4474C27.8446+11.312+27.9255+11.1316+28.0179+11.0526C28.1681+10.9286+28.1681+10.8835+28.0179+10.6804C27.9255+10.5451+27.8446+10.3534+27.8446+10.2632C27.8446+9.91353+27.1976+9.45113+26.6661+9.40601C26.3888+9.38346+26.0884+9.39474+25.996+9.43985ZM26.7817+9.83459C26.8741+9.92481+26.9203+10.3421+26.9203+10.9624C26.9203+11.7857+26.8857+11.9662+26.7124+12.0564C26.5853+12.1241+26.4351+12.1241+26.308+12.0564C26.1462+11.9662+26.1116+11.7744+26.1116+10.9624C26.1116+10.0038+26.204+9.69925+26.5159+9.69925C26.5853+9.69925+26.7008+9.75564+26.7817+9.83459ZM25.5916+10.8722C25.5916+11.5714+25.4183+11.6504+25.3952+10.9624C25.3837+10.703+25.5108+10.1504+25.5685+10.1504C25.5801+10.1504+25.5916+10.4774+25.5916+10.8722ZM27.3478+11.2444C27.3247+11.4812+27.3016+11.312+27.3016+10.8835C27.3016+10.4436+27.3247+10.2632+27.3478+10.4549C27.3709+10.6579+27.3709+11.0188+27.3478+11.2444Z" opacity="1" fill="#000000"/>
<path d="M29.0116+9.47368C28.5263+9.58646+28.3414+9.83459+28.6534+9.94737C28.9076+10.0376+28.9769+10.5789+28.7574+10.7932C28.6649+10.8835+28.6649+10.9398+28.7574+10.985C28.8267+11.0301+28.8845+11.312+28.8845+11.6278C28.8845+12.0564+28.8382+12.1804+28.6996+12.1804C28.5956+12.1804+28.5378+12.2481+28.561+12.3158C28.6303+12.4962+29.9012+12.5301+30.0052+12.3609C30.0514+12.3045+30.0167+12.2256+29.9474+12.203C29.7626+12.1466+29.7626+10.2406+29.9474+10.0601C30.1785+9.83459+30.502+9.90225+30.6175+10.218C30.6869+10.3759+30.7331+10.8496+30.7331+11.2782C30.7331+11.8872+30.6869+12.0789+30.5482+12.1579C30.2016+12.3383+30.4904+12.5075+31.1143+12.485C31.8422+12.4511+32.1657+12.3045+31.796+12.1692C31.588+12.0902+31.5418+11.9887+31.5418+11.5827C31.5418+11.312+31.5996+11.0414+31.6689+10.9737C31.7614+10.8835+31.7614+10.8271+31.6689+10.782C31.5996+10.7368+31.5418+10.5+31.5418+10.2632C31.5418+9.49624+30.7446+9.11278+30.1207+9.58646C29.8319+9.81203+29.8319+9.81203+29.7741+9.58646C29.7163+9.34962+29.6239+9.33834+29.0116+9.47368ZM31.0566+10.9511L31.0219+11.6729L30.9641+10.8609C30.9295+10.4098+30.9526+10.094+30.9988+10.1391C31.045+10.1842+31.0797+10.5564+31.0566+10.9511ZM29.2773+11.2444L29.1849+11.6729L29.1271+11.2782C29.0924+11.0639+29.0809+10.703+29.104+10.4887L29.1502+10.094L29.2657+10.4549C29.3235+10.6579+29.3351+10.9962+29.2773+11.2444Z" opacity="1" fill="#000000"/>
<path d="M33.1016+13.1504C32.6741+13.3083+32.1195+13.7143+32.1195+13.8722C32.1195+13.9173+32.2466+14.0075+32.4084+14.0752C32.651+14.188+32.7088+14.1767+32.8243+13.9511C32.8936+13.8158+33.1131+13.5338+33.3096+13.3308C33.506+13.1391+33.6446+12.9699+33.61+12.9812C33.5869+12.9812+33.3558+13.0601+33.1016+13.1504Z" opacity="1" fill="#000000"/>
<path d="M37.1223+13.1729C36.6717+13.2068+36.6371+13.2293+36.7757+13.4323C36.949+13.703+37.0761+13.703+37.4227+13.4098C37.7578+13.1391+37.7347+13.1278+37.1223+13.1729Z" opacity="1" fill="#000000"/>
<path d="M34.6382+13.4662C33.9566+13.703+33.6331+13.9624+33.2633+14.5263C32.8128+15.2256+32.8128+15.7669+33.2865+16.2857C33.7486+16.8045+34.0028+16.8722+34.4765+16.5902C35.239+16.1278+36.6255+14.4474+36.6255+13.985C36.6255+13.4662+35.4586+13.1617+34.6382+13.4662Z" opacity="1" fill="#000000"/>
<path d="M38.3586+14.3346L37.9773+14.797L38.2199+15.0226L38.4626+15.2594L38.6474+14.6165C38.7514+14.2556+38.8207+13.9511+38.7976+13.9173C38.7629+13.8947+38.5781+14.0752+38.3586+14.3346Z" opacity="1" fill="#000000"/>
<path d="M15.7247+14.515C16.1291+15.1917+16.2446+15.2932+16.4526+15.1128C16.5566+15.0338+16.6375+14.9323+16.6375+14.8872C16.6375+14.8083+15.6669+14.0977+15.5398+14.0977C15.4936+14.0977+15.5745+14.2895+15.7247+14.515Z" opacity="1" fill="#000000"/>
<path d="M30.6637+14.5376C29.8896+14.8985+29.2657+15.5188+29.1618+16.0827C29.0693+16.5789+29.4737+17.3346+29.8896+17.4361C30.2478+17.5263+31.0797+17.3346+31.4956+17.0639C31.6574+16.9624+31.8884+16.6805+32.0155+16.4436C32.2813+15.9361+32.4777+14.6391+32.3275+14.3797C32.1657+14.1203+31.461+14.188+30.6637+14.5376Z" opacity="1" fill="#000000"/>
<path d="M11.1494+14.6617C11.6347+15.0451+11.808+15.0789+12.0159+14.8308C12.1777+14.6504+12.1777+14.6504+11.3805+14.4474C10.6988+14.2669+10.6757+14.2895+11.1494+14.6617Z" opacity="1" fill="#000000"/>
<path d="M12.5936+14.8534C12.2355+14.9887+12.0159+15.2707+12.0159+15.609C12.0159+15.891+12.143+16.0714+12.6283+16.5226C12.9633+16.8271+13.3677+17.2444+13.541+17.4474C13.957+17.9549+14.6386+18.3835+15.0199+18.3835C15.4243+18.3835+16.0713+17.9549+16.2677+17.5601C16.6721+16.7368+15.8865+15.5977+14.5924+15.1353C13.8761+14.8759+12.8825+14.7406+12.5936+14.8534Z" opacity="1" fill="#000000"/>
<path d="M37.2032+14.9662C37.1108+15+36.8219+15.2368+36.5562+15.4962C36.302+15.7444+35.8283+16.1955+35.4932+16.4774C34.7884+17.109+34.6267+17.6278+34.9502+18.2256C35.4124+19.0601+36.2558+19.094+37.1801+18.3271C37.7924+17.8083+38.1275+17.1203+38.2084+16.1504C38.2661+15.4511+38.243+15.3383+38.0235+15.1241C37.7809+14.8872+37.5498+14.8421+37.2032+14.9662Z" opacity="1" fill="#000000"/>
<path d="M10.098+15.2256C10.1327+15.3835+10.1673+15.7895+10.1673+16.1278L10.1673+16.7368L10.4215+16.5C10.641+16.2744+10.6526+16.2068+10.5371+15.8233C10.4677+15.5865+10.3175+15.2932+10.2251+15.1692C10.0402+14.9549+10.0402+14.9549+10.098+15.2256Z" opacity="1" fill="#000000"/>
<path d="M16.7645+15.2143C16.4641+15.5075+16.4641+15.7331+16.753+16.3308C16.8801+16.5789+16.9841+16.8609+16.9841+16.9398C16.9841+17.2556+17.7004+18.282+18.1048+18.5526C18.4167+18.7556+18.694+18.8346+19.0984+18.8346C19.5837+18.8346+19.7108+18.7782+20.1267+18.406C20.5195+18.0338+20.6004+17.8872+20.6466+17.4135C20.6928+16.9286+20.6582+16.7932+20.3116+16.297C19.8032+15.5526+18.9251+15.1015+17.8159+15.0226C17.1112+14.9774+16.9841+15+16.7645+15.2143Z" opacity="1" fill="#000000"/>
<path d="M10.5371+16.8835C10.1673+17.5714+10.306+18.6316+10.8606+19.3759C11.2072+19.8496+12.2124+20.4135+12.6861+20.4135C13.1482+20.4135+13.7259+20.0752+13.9916+19.6579C14.2343+19.2857+14.2343+19.2406+14.061+18.891C13.8414+18.4398+12.9633+17.6842+11.9928+17.109C11.2187+16.6579+10.6988+16.5789+10.5371+16.8835Z" opacity="1" fill="#000000"/>
<path d="M29.0462+17.8308C28.0641+17.9211+27.498+18.2256+27.1861+18.8346C26.6661+19.8158+26.9203+20.6504+27.8793+21.1466C28.8614+21.6541+28.8614+21.5752+27.8793+22.6917C27.394+23.2444+26.8394+23.8308+26.643+23.9887C26.4466+24.1466+26.0076+24.5188+25.6725+24.8233C25.3375+25.1278+24.9908+25.3759+24.9215+25.3759C24.8406+25.3759+24.1128+24.7218+23.2924+23.9211L21.802+22.4549L22.2179+22.0038C22.4375+21.7556+22.6801+21.3722+22.7494+21.1466C22.9112+20.5489+22.6454+19.7368+22.1255+19.297C21.6402+18.8797+21.1665+18.8459+19.9072+19.1391C19.1677+19.297+18.9482+19.3083+17.9315+19.1729C16.5681+19.0038+16.2562+19.0601+15.7594+19.5902C15.3434+20.0301+15.2048+20.5263+15.3088+21.2368C15.3434+21.4962+15.4243+22.3534+15.4705+23.1316C15.6554+25.6128+16.3371+26.515+17.9199+26.3684C18.7402+26.2895+19.0522+26.0075+19.5259+24.9474C19.7454+24.4511+20.0112+23.9211+20.1151+23.7744L20.3+23.515L21.6749+24.7782C22.4375+25.4662+23.2231+26.2105+23.4311+26.4248L23.8239+26.8195L22.8072+27.6767C22.2526+28.1504+20.8777+29.2218+19.7685+30.0564C16.9032+32.1767+15.5745+33.282+14.708+34.2744C13.9108+35.1767+13.1251+36.3947+12.998+36.891C12.894+37.2857+13.1482+37.7481+13.7375+38.2669C14.3382+38.797+14.7195+38.8083+15.5861+38.3346C17.3769+37.3534+18.7402+35.9549+21.4323+32.3684C22.992+30.2932+23.743+29.3684+24.5633+28.5338L25.0602+28.0263L25.4183+28.3647C25.9729+28.8722+27.0705+30.1805+28.7689+32.3684C31.2761+35.594+32.6626+37.0038+34.2916+37.9737C35.4008+38.6278+35.7012+38.6842+36.2558+38.3008C36.7873+37.9398+37.1916+37.4436+37.2725+37.0263C37.3187+36.7895+37.1916+36.485+36.7873+35.8083C35.8976+34.3308+34.1183+32.7068+30.3865+29.9662C27.5327+27.8797+26.3426+26.9436+26.3426+26.7744C26.3426+26.7068+27.9602+24.9586+29.1618+23.718C29.6008+23.2669+30.0283+22.8947+30.0976+22.8947C30.1669+22.8947+30.3402+23.0865+30.4789+23.312C31.1028+24.3947+31.8191+24.7444+32.7896+24.4286C33.8179+24.0902+34.0028+23.6729+33.8179+22.1165C33.7139+21.2256+33.7255+20.9098+33.8988+20.0752C34.0837+19.1504+34.0952+19.0489+33.9104+18.688C33.8179+18.485+33.5637+18.1805+33.3558+18.0338C33.0092+17.7744+32.8936+17.7632+31.3685+17.7632C30.4789+17.7632+29.4275+17.797+29.0462+17.8308Z" opacity="1" fill="#000000"/>
<path d="M38.1275+18.5075C37.8502+18.688+37.6076+18.8571+37.5845+18.8797C37.5614+18.9023+37.6653+19.0038+37.8271+19.094C38.1044+19.2744+38.1159+19.2744+38.4163+18.7669C38.5896+18.485+38.7052+18.2368+38.6821+18.2143C38.659+18.1917+38.4163+18.3271+38.1275+18.5075Z" opacity="1" fill="#000000"/>
<path d="M36.8566+19.1729C36.7641+19.2293+36.3251+19.3872+35.8976+19.5226C34.4418+19.9511+33.7024+20.9549+34.1761+21.8571C34.2916+22.0827+34.5689+22.3872+34.7769+22.5226C35.8052+23.2105+37.2725+22.3759+37.7116+20.8759C37.9311+20.0977+37.9426+19.6241+37.7578+19.3647C37.5614+19.1278+37.0761+19.0263+36.8566+19.1729Z" opacity="1" fill="#000000"/>
<path d="M10.1211+19.9173C10.2829+20.4361+10.5948+20.9323+10.9183+21.203C11.0685+21.3271+11.1378+21.3158+11.3227+21.1466C11.6347+20.8759+11.6116+20.8083+11.2072+20.6391C11.0108+20.5601+10.6988+20.2782+10.5024+20.0075C10.0287+19.3421+9.93626+19.3083+10.1211+19.9173Z" opacity="1" fill="#000000"/>
<path d="M11.6231+21.1579C11.3574+21.406+11.4382+21.7895+11.9466+22.7707C12.6514+24.1241+13.7375+24.609+14.6849+23.9887C15.2394+23.6278+15.3434+23.2669+15.0777+22.5902C14.6733+21.5526+14.0841+21.1917+12.5243+21.0226C11.9466+20.9662+11.7964+20.9887+11.6231+21.1579Z" opacity="1" fill="#000000"/>
<path d="M26.6892+32.9662C26.3888+33.1917+26.1116+33.6429+26.1116+33.9135C26.1116+34.0489+25.9729+34.297+25.7996+34.4549L25.4761+34.7368L25.7418+34.8045C25.9498+34.8609+25.996+34.9511+25.996+35.312C25.996+35.5489+25.9382+35.7744+25.8805+35.8083C25.788+35.8647+25.788+35.9323+25.8805+36.0338C26.0538+36.2481+25.9845+37.2857+25.7996+37.2406C25.7187+37.2293+25.6494+37.297+25.6494+37.3872C25.6494+37.5226+25.8343+37.5564+26.5737+37.5564C27.4402+37.5564+27.7869+37.4323+27.2669+37.297C27.0705+37.2519+27.0359+37.1391+27.0359+36.688C27.0359+36.3835+27.0936+36.0789+27.1629+36.0113C27.2554+35.9211+27.2554+35.8647+27.1629+35.8195C27.0936+35.7744+27.0359+35.5376+27.0359+35.3008C27.0359+34.8947+27.059+34.8609+27.4056+34.8271C27.6598+34.8045+27.7984+34.7256+27.8215+34.5902C27.8562+34.4323+27.7753+34.3985+27.4518+34.3985C27.1167+34.3985+27.0243+34.3534+26.9665+34.1278C26.8163+33.5075+27.1167+33.0338+27.5673+33.203C27.7869+33.282+27.7869+33.2932+27.5673+33.4511C27.4402+33.5301+27.3594+33.6203+27.394+33.6429C27.4171+33.6541+27.5327+33.7444+27.6482+33.8233C27.8331+33.9586+27.8446+33.9248+27.8446+33.3947L27.8446+32.8195L27.3594+32.8195C27.0821+32.8195+26.7817+32.8872+26.6892+32.9662ZM26.4466+35.7744C26.4351+36.4962+26.4004+36.6767+26.3542+36.3722C26.2849+35.9211+26.3195+34.7368+26.412+34.7368C26.4351+34.7368+26.4466+35.2105+26.4466+35.7744Z" opacity="1" fill="#000000"/>
<path d="M22.3219+33.4962C21.8944+33.7556+21.5247+34.297+21.4207+34.8271C21.3861+35.0301+21.3052+35.2105+21.259+35.2444C21.2012+35.2782+21.2359+35.4474+21.3283+35.6165C21.4092+35.7857+21.49+36.0113+21.49+36.1241C21.49+36.4398+21.7904+36.9361+22.1717+37.2519C22.8534+37.8045+23.9857+37.7368+24.5402+37.1053C24.6904+36.9248+24.8869+36.485+24.9677+36.1466C25.0486+35.797+25.1526+35.4925+25.2104+35.4586C25.2681+35.4248+25.2681+35.3346+25.2104+35.2669C25.1526+35.188+25.0486+34.906+24.9677+34.6241C24.7135+33.7556+24.0781+33.2707+23.2+33.2707C22.9112+33.2707+22.553+33.3609+22.3219+33.4962ZM23.6159+33.7895C23.8355+33.9925+23.8701+35.1316+23.6737+35.2556C23.5813+35.3008+23.5813+35.3571+23.6737+35.4474C23.847+35.6165+23.8355+36.9135+23.6622+37.0827C23.5813+37.1617+23.3849+37.218+23.2231+37.218C23.0614+37.218+22.8649+37.1617+22.7841+37.0827C22.6108+36.9135+22.5992+35.6165+22.7725+35.4474C22.8649+35.3571+22.8649+35.3008+22.7725+35.2556C22.5761+35.1316+22.6108+33.9925+22.8303+33.7895C23.0614+33.5639+23.3849+33.5639+23.6159+33.7895ZM22.01+35.4699C22.01+36.1805+21.9984+36.7669+21.9869+36.7669C21.9175+36.7669+21.7096+35.8308+21.698+35.5038C21.698+35.188+21.906+34.1729+21.9869+34.1729C21.9984+34.1729+22.01+34.7594+22.01+35.4699ZM24.3669+35.4135C24.3785+36.5977+24.2283+37.0601+24.1474+36.0902C24.1128+35.6842+24.1128+35.0752+24.1359+34.7368C24.1936+33.8571+24.3554+34.3308+24.3669+35.4135Z" opacity="1" fill="#000000"/>
<path d="M17.8737+39.1917C17.5386+39.3609+17.5849+39.5188+17.9777+39.5865L18.3127+39.6429L18.3474+40.7368C18.3705+41.718+18.359+41.8534+18.151+41.9662C17.9315+42.1015+17.9315+42.1128+18.151+42.282C18.359+42.4398+18.3821+42.5865+18.3474+43.6466L18.3127+44.8308L17.943+44.8647C17.3653+44.9211+17.0765+44.718+17.1227+44.2895C17.1458+44.0414+17.2382+43.8947+17.4231+43.8158C17.7351+43.6805+17.7466+43.5789+17.4462+43.4211C17.3191+43.3534+17.2151+43.218+17.2151+43.1278C17.2151+42.9812+17.1343+42.9586+16.8454+43.015C16.6375+43.0489+16.3486+43.094+16.1984+43.1278C15.8402+43.1842+15.794+43.2519+15.9327+43.5C15.9904+43.6128+16.0829+43.8835+16.1175+44.109C16.1522+44.3459+16.2793+44.6504+16.4064+44.8083C17.1458+45.7218+19.0522+45.6316+19.7685+44.6504C19.9996+44.3233+20.0343+44.1767+19.9996+43.3647C19.9765+42.6316+20.0112+42.4173+20.1498+42.2932C20.3231+42.1579+20.3231+42.1241+20.1614+41.9549C19.9534+41.7293+19.8378+39.9474+20.0112+39.7218C20.0805+39.6541+20.2538+39.5865+20.404+39.5865C20.6928+39.5865+20.7853+39.3271+20.5542+39.1805C20.3462+39.0564+18.1279+39.0677+17.8737+39.1917ZM19.0637+42.2932C19.0637+44.1541+18.8904+44.7857+18.8096+43.2406C18.7749+42.5752+18.7056+42.2368+18.6131+42.203C18.4976+42.1692+18.4976+42.1353+18.59+42.0677C18.6709+42.0226+18.7633+41.6278+18.798+41.1767C18.9135+39.8571+19.0637+40.4887+19.0637+42.2932Z" opacity="1" fill="#000000"/>
<path d="M23.3964+39.1466C22.5068+39.4737+21.8251+40.2632+21.6056+41.2218C21.5363+41.5263+21.3976+41.8647+21.3052+41.9662C21.155+42.1241+21.155+42.1692+21.3052+42.282C21.3976+42.3609+21.5131+42.6654+21.5594+42.9474C21.6749+43.703+22.0215+44.3684+22.5414+44.8308C23.1191+45.3383+23.4195+45.4511+24.2167+45.4511C25.6378+45.4511+26.4928+44.6955+26.8163+43.1729C26.8857+42.8459+27.0128+42.4624+27.1052+42.3271C27.2323+42.1241+27.2323+42.0677+27.1052+41.9662C27.0243+41.8985+26.8857+41.5376+26.8163+41.1767C26.6546+40.3534+26.1693+39.6767+25.5108+39.3496C24.9562+39.0677+23.8932+38.9662+23.3964+39.1466ZM24.806+39.8346C25.0371+40.0489+25.0717+40.1842+25.0717+40.9173C25.0717+41.5263+25.0255+41.8195+24.8984+41.9549C24.7367+42.1241+24.7367+42.1579+24.8984+42.2932C25.0255+42.3947+25.0717+42.6767+25.0717+43.4323C25.0717+44.6053+24.8984+44.8872+24.2052+44.8872C23.512+44.8872+23.3386+44.6053+23.3386+43.4323C23.3386+42.6767+23.3849+42.3947+23.512+42.2932C23.6737+42.1579+23.6737+42.1241+23.512+41.9549C23.3849+41.8195+23.3386+41.515+23.3386+40.906C23.3386+40.1842+23.3733+40.0038+23.5697+39.812C23.8817+39.5075+24.4594+39.5188+24.806+39.8346ZM22.4028+40.8045C22.2757+41.1767+22.3104+43.4774+22.4606+43.985C22.5414+44.2444+22.5299+44.2556+22.3797+44.0639C22.2873+43.9511+22.1486+43.5226+22.0677+43.1053C21.9869+42.688+21.8713+42.282+21.802+42.203C21.7327+42.1241+21.7327+42.0677+21.802+42.0677C21.8598+42.0677+21.9753+41.7632+22.0446+41.3797C22.1602+40.7707+22.3797+40.297+22.4837+40.4098C22.5068+40.4323+22.4721+40.6128+22.4028+40.8045ZM25.8227+42.2932C25.8227+43.3308+25.7765+44.0188+25.6956+44.0977C25.6147+44.1767+25.5801+43.9398+25.5685+43.2857C25.5685+42.7669+25.5685+42.2481+25.5685+42.1241C25.557+40.8835+25.5916+40.3872+25.7072+40.5C25.7765+40.5677+25.8227+41.2895+25.8227+42.2932Z" opacity="1" fill="#000000"/>
<path d="M27.394+39.203C27.0474+39.4398+27.0936+39.5639+27.5211+39.609C27.8677+39.6429+27.9602+39.7556+28.7805+41.1541C29.6701+42.6654+29.7394+42.8797+29.3582+43.1729C29.1849+43.3083+29.1849+43.3308+29.3813+43.4323C29.5315+43.5226+29.5777+43.6917+29.5777+44.1429C29.5777+44.7744+29.4622+44.9549+29.0347+45.0226C28.8382+45.0451+28.8036+45.1015+28.8729+45.2143C28.9538+45.3383+29.3004+45.3835+30.294+45.406C31.5072+45.4173+32.004+45.3383+32.004+45.1353C32.004+45.0902+31.8307+45+31.6343+44.9436C31.2761+44.8308+31.253+44.797+31.2183+44.2105C31.1837+43.7368+31.2299+43.5677+31.3801+43.4549C31.5649+43.3195+31.5649+43.297+31.3916+43.1053C31.0797+42.7669+31.1721+42.4398+31.9231+40.9962C32.4892+39.9248+32.6972+39.6316+32.9052+39.609C33.1016+39.5752+33.1594+39.5075+33.1363+39.3383C33.1016+39.1241+33.0323+39.1015+32.2813+39.1015C31.3916+39.1128+31.1952+39.1692+31.1952+39.4286C31.1952+39.5301+31.3223+39.5865+31.5996+39.5865L32.004+39.5865L31.4263+40.7143C31.1028+41.3346+30.8255+41.8421+30.7908+41.8421C30.7446+41.8421+29.8896+40.2857+29.6008+39.6767C29.5777+39.6316+29.7279+39.5865+29.9243+39.5639C30.2594+39.5301+30.2709+39.5188+30.1207+39.3158C29.9821+39.1353+29.8203+39.1015+29.1271+39.1015C28.6649+39.1128+28.2606+39.1353+28.2259+39.1692C28.1912+39.203+28.0526+39.1917+27.9024+39.1353C27.7175+39.0677+27.5673+39.0902+27.394+39.203ZM29.6817+41.4023C30.2247+42.3609+30.2709+42.4962+30.2709+43.1842C30.2709+43.5902+30.2131+44.0075+30.1554+44.0977C30.0745+44.2218+30.0398+44.188+30.0398+43.9173C30.0398+43.7368+29.9821+43.5226+29.9012+43.4436C29.7972+43.3421+29.7972+43.2744+29.9012+43.1729C30.1438+42.9361+30.0514+42.5526+29.4622+41.4925C28.8267+40.3534+28.8382+40.3759+28.9884+40.3759C29.0462+40.3759+29.3582+40.8383+29.6817+41.4023Z" opacity="1" fill="#000000"/>
</g>
</g>
</svg>
